<svg width="350" height="390" viewBox="0 0 350 390" fill="none" xmlns="http://www.w3.org/2000/svg">
<path d="M289.401 245.5C290.401 301 289.401 340 182.401 346C112.056 349.945 52.9009 347 63.4009 245.5C63.4009 189.443 113.993 144 176.401 144C238.809 144 288.401 190 289.401 245.5Z" fill="#744F9F"/>
<path d="M195.437 185H154.777C147.168 185 141 191.168 141 198.777V299.354C141 306.963 147.168 313.131 154.777 313.131H195.437C203.046 313.131 209.214 306.963 209.214 299.354V198.777C209.214 191.168 203.046 185 195.437 185Z" fill="#FFDFC9" stroke="#7B4DA4" stroke-width="4" stroke-linecap="round"/>
<path d="M142.896 267.634V226.678H211.5C206.333 247.68 175.523 268.768 142.896 267.634Z" fill="#EFBE9D"/>
<path d="M133.401 177.178C133.401 188.866 122.851 198.678 109.401 198.678C95.951 198.678 85.4009 188.866 85.4009 177.178C85.4009 165.489 95.951 155.678 109.401 155.678C122.851 155.678 133.401 165.489 133.401 177.178Z" fill="white" stroke="#7D7A7A" stroke-width="4"/>
<path d="M216.401 177.178C216.401 188.866 226.951 198.678 240.401 198.678C253.851 198.678 264.401 188.866 264.401 177.178C264.401 165.489 253.851 155.678 240.401 155.678C226.951 155.678 216.401 165.489 216.401 177.178Z" fill="white" stroke="#7D7A7A" stroke-width="4"/>
<path d="M241.401 170.261C241.401 192.713 235.443 209.834 224.387 221.337C213.342 232.828 196.933 239 175.431 239C153.927 239 137.243 232.827 125.93 221.321C114.612 209.81 108.401 192.69 108.401 170.261C108.401 147.834 114.61 131.229 125.9 120.22C137.198 109.203 153.884 103.5 175.431 103.5C196.977 103.5 213.387 109.202 224.416 120.204C235.444 131.205 241.401 147.811 241.401 170.261Z" fill="#FFDFC9" stroke="#7B4DA4" stroke-width="4" stroke-linecap="round"/>
<path d="M175.401 174C173.43 180.812 172.401 184.371 172.401 191.458C175.04 192.72 177.564 193.036 181.901 193" stroke="#7B4DA4" stroke-width="4" stroke-linecap="round" stroke-linejoin="round"/>
<path d="M140.169 187.225C142.23 187.225 144.058 186.11 145.354 184.382C146.65 182.654 147.436 180.291 147.436 177.701C147.436 175.112 146.65 172.748 145.354 171.021C144.058 169.293 142.23 168.178 140.169 168.178C138.107 168.178 136.279 169.293 134.983 171.021C133.687 172.748 132.901 175.112 132.901 177.701C132.901 180.291 133.687 182.654 134.983 184.382C136.279 186.11 138.107 187.225 140.169 187.225Z" fill="#323232" stroke="#7B4DA4" stroke-linecap="round"/>
<path d="M143.017 177.986C144.398 177.986 145.517 176.867 145.517 175.486C145.517 174.105 144.398 172.986 143.017 172.986C141.636 172.986 140.517 174.105 140.517 175.486C140.517 176.867 141.636 177.986 143.017 177.986Z" fill="white" stroke="#7B4DA4"/>
<path d="M212.169 187.225C214.23 187.225 216.058 186.11 217.354 184.382C218.65 182.654 219.436 180.291 219.436 177.701C219.436 175.112 218.65 172.748 217.354 171.021C216.058 169.293 214.23 168.178 212.169 168.178C210.107 168.178 208.279 169.293 206.983 171.021C205.687 172.748 204.901 175.112 204.901 177.701C204.901 180.291 205.687 182.654 206.983 184.382C208.279 186.11 210.107 187.225 212.169 187.225Z" fill="#323232" stroke="#7B4DA4" stroke-linecap="round"/>
<path d="M215.017 177.486C216.122 177.486 217.017 176.59 217.017 175.486C217.017 174.381 216.122 173.486 215.017 173.486C213.913 173.486 213.017 174.381 213.017 175.486C213.017 176.59 213.913 177.486 215.017 177.486Z" fill="white"/>
<path d="M167.401 221C170.401 224.667 178.201 229.8 185.401 221" stroke="#7B4DA4" stroke-width="4" stroke-linecap="round" stroke-linejoin="round"/>
<path d="M117.901 163.66C110.465 241 77.9009 226 70.4008 308.5C62.2849 306.541 33.4009 245 70.4009 181C107.401 117 105.901 72.4999 175.401 71.4999C244.901 70.4999 256.133 123 282.517 181C308.901 239 288.531 304.623 279.901 307.5C279.901 236.5 233.901 238 235.401 163.66C187.527 141.181 161.444 141.032 117.901 163.66Z" fill="#BAAAC8"/>
<path d="M83.4009 131.76C83.4009 126.657 87.158 122.317 92.2111 121.61C156.525 112.611 196.203 112.972 260.492 121.646C265.593 122.334 269.401 126.704 269.401 131.852C269.401 138.221 263.682 143.066 257.386 142.107C195.141 132.631 155.972 132.226 95.4832 141.97C89.1744 142.986 83.4009 138.15 83.4009 131.76Z" fill="#323232"/>
<g filter="url(#filter0_f_678_1795)">
<path d="M136.5 206C141.747 206 146 203.538 146 200.5C146 197.462 141.747 195 136.5 195C131.253 195 127 197.462 127 200.5C127 203.538 131.253 206 136.5 206Z" fill="#FC9D80"/>
</g>
<g filter="url(#filter1_f_678_1795)">
<path d="M215.5 206C220.747 206 225 203.538 225 200.5C225 197.462 220.747 195 215.5 195C210.253 195 206 197.462 206 200.5C206 203.538 210.253 206 215.5 206Z" fill="#FC9D80"/>
</g>
<path d="M141.637 255.566C157.781 283.54 196.874 281.35 209.064 255.821C209.396 255.127 210.144 254.922 210.623 255.139C237.582 267.357 255.284 280.353 267.373 297.321C279.476 314.308 286.102 335.482 290.512 364.356C290.604 364.958 290.132 365.5 289.538 365.5H59.4713C58.8782 365.5 58.4055 364.956 58.5002 364.354C63.2636 334.036 71.0979 312.611 83.9311 295.851C96.7651 279.091 114.747 266.803 140.18 255.032C140.637 254.82 141.303 254.988 141.637 255.566Z" fill="white" stroke="#744F9F" stroke-width="4" stroke-linecap="round" stroke-linejoin="round"/>
<path d="M139 255.5L140.436 299.052C140.463 299.866 141.399 300.308 142.045 299.812L173 276" stroke="#744F9F" stroke-width="4" stroke-linecap="round"/>
<path d="M211 255.5L209.564 299.052C209.537 299.866 208.601 300.308 207.955 299.812L177 276" stroke="#744F9F" stroke-width="4" stroke-linecap="round"/>
<path d="M175 276.477L176.011 363.477" stroke="#744F9F" stroke-width="4"/>
<path d="M189 317.5C192.314 317.5 195 314.814 195 311.5C195 308.186 192.314 305.5 189 305.5C185.686 305.5 183 308.186 183 311.5C183 314.814 185.686 317.5 189 317.5Z" fill="#744F9F"/>
<path d="M189 347.5C192.314 347.5 195 344.814 195 341.5C195 338.186 192.314 335.5 189 335.5C185.686 335.5 183 338.186 183 341.5C183 344.814 185.686 347.5 189 347.5Z" fill="#744F9F"/>
<path d="M148 221.494C148 210.728 156.728 202 167.494 202H188.506C199.272 202 208 210.728 208 221.494C208 223.036 207.15 224.453 205.789 225.179L204.029 226.118C201.824 227.294 199.176 227.294 196.971 226.118L196.75 226C194.406 224.75 191.594 224.75 189.25 226C186.906 227.25 184.094 227.25 181.75 226C179.406 224.75 176.594 224.75 174.25 226C171.906 227.25 169.094 227.25 166.75 226C164.406 224.75 161.594 224.75 159.25 226L159.029 226.118C156.824 227.294 154.176 227.294 151.971 226.118L150.211 225.179C148.85 224.453 148 223.036 148 221.494Z" fill="#323232"/>
<defs>
<filter id="filter0_f_678_1795" x="115" y="183" width="43" height="35" filterUnits="userSpaceOnUse" color-interpolation-filters="sRGB">
<feFlood flood-opacity="0" result="BackgroundImageFix"/>
<feBlend mode="normal" in="SourceGraphic" in2="BackgroundImageFix" result="shape"/>
<feGaussianBlur stdDeviation="6" result="effect1_foregroundBlur_678_1795"/>
</filter>
<filter id="filter1_f_678_1795" x="194" y="183" width="43" height="35" filterUnits="userSpaceOnUse" color-interpolation-filters="sRGB">
<feFlood flood-opacity="0" result="BackgroundImageFix"/>
<feBlend mode="normal" in="SourceGraphic" in2="BackgroundImageFix" result="shape"/>
<feGaussianBlur stdDeviation="6" result="effect1_foregroundBlur_678_1795"/>
</filter>
</defs>
</svg>
